<svg width="80" height="80" viewBox="0 0 80 80" fill="none" xmlns="http://www.w3.org/2000/svg">
<rect width="80" height="80" rx="40" fill="#006616" fill-opacity="0.1"/>
<path d="M45.7946 41.4834L48.3196 55.6934C48.3479 55.8607 48.3244 56.0327 48.2523 56.1863C48.1802 56.3399 48.0629 56.4679 47.9161 56.5531C47.7694 56.6382 47.6001 56.6766 47.4309 56.6629C47.2618 56.6493 47.1008 56.5843 46.9696 56.4767L41.0029 51.9984C40.7149 51.7832 40.365 51.6669 40.0054 51.6669C39.6459 51.6669 39.296 51.7832 39.0079 51.9984L33.0313 56.4751C32.9001 56.5825 32.7394 56.6473 32.5704 56.661C32.4015 56.6746 32.2324 56.6364 32.0857 56.5515C31.939 56.4666 31.8217 56.3389 31.7495 56.1856C31.6772 56.0323 31.6534 55.8606 31.6813 55.6934L34.2046 41.4834" stroke="#363F5E" stroke-width="3.33333" stroke-linecap="round" stroke-linejoin="round"/>
<path d="M40 43.3335C45.5228 43.3335 50 38.8563 50 33.3335C50 27.8106 45.5228 23.3335 40 23.3335C34.4772 23.3335 30 27.8106 30 33.3335C30 38.8563 34.4772 43.3335 40 43.3335Z" stroke="#363F5E" stroke-width="3.33333" stroke-linecap="round" stroke-linejoin="round"/>
</svg>
