<svg width="65" height="64" viewBox="0 0 65 64" fill="none" xmlns="http://www.w3.org/2000/svg">
<rect x="0.5" width="64" height="64" rx="8" fill="#7A73FF" fill-opacity="0.1"/>
<path d="M36.5 29.3333L42.5707 26.2987C42.7739 26.1971 42.9997 26.1492 43.2267 26.1594C43.4536 26.1696 43.6742 26.2377 43.8675 26.3571C44.0608 26.4765 44.2203 26.6433 44.331 26.8417C44.4417 27.0401 44.4999 27.2635 44.5 27.4907V36.5093C44.4999 36.7365 44.4417 36.9599 44.331 37.1583C44.2203 37.3567 44.0608 37.5235 43.8675 37.6429C43.6742 37.7623 43.4536 37.8304 43.2267 37.8406C42.9997 37.8508 42.7739 37.8029 42.5707 37.7013L36.5 34.6667M23.1667 40H33.8333C34.5406 40 35.2189 39.719 35.719 39.219C36.219 38.7189 36.5 38.0406 36.5 37.3333V26.6667C36.5 25.9594 36.219 25.2811 35.719 24.781C35.2189 24.281 34.5406 24 33.8333 24H23.1667C22.4594 24 21.7811 24.281 21.281 24.781C20.781 25.2811 20.5 25.9594 20.5 26.6667V37.3333C20.5 38.0406 20.781 38.7189 21.281 39.219C21.7811 39.719 22.4594 40 23.1667 40Z" stroke="#7A74FF" stroke-width="2.66667" stroke-linecap="round" stroke-linejoin="round"/>
</svg>
