<svg width="65" height="64" viewBox="0 0 65 64" fill="none" xmlns="http://www.w3.org/2000/svg">
<rect x="0.5" width="64" height="64" rx="8" fill="#7A73FF" fill-opacity="0.1"/>
<path d="M28.5 41.3333V33.3333C28.5 32.6261 28.219 31.9478 27.719 31.4477C27.2189 30.9476 26.5406 30.6667 25.8333 30.6667H23.1667C22.4594 30.6667 21.7811 30.9476 21.281 31.4477C20.781 31.9478 20.5 32.6261 20.5 33.3333V41.3333C20.5 42.0406 20.781 42.7189 21.281 43.219C21.7811 43.719 22.4594 44 23.1667 44H25.8333C26.5406 44 27.2189 43.719 27.719 43.219C28.219 42.7189 28.5 42.0406 28.5 41.3333ZM28.5 41.3333V28C28.5 27.2928 28.781 26.6145 29.281 26.1144C29.7811 25.6143 30.4594 25.3333 31.1667 25.3333H33.8333C34.5406 25.3333 35.2189 25.6143 35.719 26.1144C36.219 26.6145 36.5 27.2928 36.5 28V41.3333M28.5 41.3333C28.5 42.0406 28.781 42.7189 29.281 43.219C29.7811 43.719 30.4594 44 31.1667 44H33.8333C34.5406 44 35.2189 43.719 35.719 43.219C36.219 42.7189 36.5 42.0406 36.5 41.3333M36.5 41.3333V22.6667C36.5 21.9594 36.781 21.2811 37.281 20.781C37.7811 20.281 38.4594 20 39.1667 20H41.8333C42.5406 20 43.2189 20.281 43.719 20.781C44.219 21.2811 44.5 21.9594 44.5 22.6667V41.3333C44.5 42.0406 44.219 42.7189 43.719 43.219C43.2189 43.719 42.5406 44 41.8333 44H39.1667C38.4594 44 37.7811 43.719 37.281 43.219C36.781 42.7189 36.5 42.0406 36.5 41.3333Z" stroke="#7A74FF" stroke-width="2.66667" stroke-linecap="round" stroke-linejoin="round"/>
</svg>
