<svg width="48" height="48" viewBox="0 0 48 48" fill="none" xmlns="http://www.w3.org/2000/svg">
<rect width="48" height="48" rx="8" fill="#7A73FF" fill-opacity="0.1"/>
<path d="M34.56 24.25C34.56 23.47 34.49 22.72 34.36 22H24V26.26H29.92C29.66 27.63 28.88 28.79 27.71 29.57V32.34H31.28C33.36 30.42 34.56 27.6 34.56 24.25Z" fill="#7A74FF"/>
<path d="M23.9997 35.0001C26.9697 35.0001 29.4597 34.0201 31.2797 32.3401L27.7097 29.5701C26.7297 30.2301 25.4797 30.6301 23.9997 30.6301C21.1397 30.6301 18.7097 28.7001 17.8397 26.1001H14.1797V28.9401C15.9897 32.5301 19.6997 35.0001 23.9997 35.0001Z" fill="#7A74FF"/>
<path d="M17.84 26.0898C17.62 25.4298 17.49 24.7298 17.49 23.9998C17.49 23.2698 17.62 22.5698 17.84 21.9098V19.0698H14.18C13.43 20.5498 13 22.2198 13 23.9998C13 25.7798 13.43 27.4498 14.18 28.9298L17.03 26.7098L17.84 26.0898Z" fill="#7A74FF"/>
<path d="M23.9997 17.38C25.6197 17.38 27.0597 17.94 28.2097 19.02L31.3597 15.87C29.4497 14.09 26.9697 13 23.9997 13C19.6997 13 15.9897 15.47 14.1797 19.07L17.8397 21.91C18.7097 19.31 21.1397 17.38 23.9997 17.38Z" fill="#7A74FF"/>
</svg>
