<svg width="65" height="64" viewBox="0 0 65 64" fill="none" xmlns="http://www.w3.org/2000/svg">
<rect x="0.5" width="64" height="64" rx="8" fill="#7A73FF" fill-opacity="0.1"/>
<path d="M28.5003 32H36.5003M28.5003 37.3333H36.5003M39.167 44H25.8337C25.1264 44 24.4481 43.719 23.948 43.219C23.4479 42.7189 23.167 42.0406 23.167 41.3333V22.6667C23.167 21.9594 23.4479 21.2811 23.948 20.781C24.4481 20.281 25.1264 20 25.8337 20H33.2817C33.6353 20.0001 33.9743 20.1406 34.2243 20.3907L41.443 27.6093C41.6931 27.8593 41.8336 28.1984 41.8337 28.552V41.3333C41.8337 42.0406 41.5527 42.7189 41.0526 43.219C40.5525 43.719 39.8742 44 39.167 44Z" stroke="#7A74FF" stroke-width="2.66667" stroke-linecap="round" stroke-linejoin="round"/>
</svg>
