<svg width="65" height="64" viewBox="0 0 65 64" fill="none" xmlns="http://www.w3.org/2000/svg">
<rect x="0.5" width="64" height="64" rx="8" fill="#7A73FF" fill-opacity="0.1"/>
<path d="M38.5 40.0003C24.172 40.0003 22.0573 40.6363 20.5 41.671V24.3377C22.0573 23.303 24.172 22.667 26.5 22.667C28.828 22.667 30.9427 23.303 32.5 24.3377V41.671C34.0573 40.6363 36.172 40.0003 38.5 40.0003ZM38.5 40.0003C52.828 40.0003 42.9427 40.6363 44.5 41.671M38.5 40.0003C40.828 40.0003 42.9427 40.6363 44.5 41.671M44.5 41.671V24.3377M44.5 24.3377C34.0573 23.303 36.172 22.667 38.5 22.667C40.8293 22.667 42.9427 23.303 44.5 24.3377Z" stroke="#7A74FF" stroke-width="2.66667" stroke-linecap="round" stroke-linejoin="round"/>
</svg>
